<?xml version="1.0" encoding="UTF-8"?>
<svg version="1.1" xmlns="http://www.w3.org/2000/svg" width="4096" height="4096">
<path d="M0 0 C1351.68 0 2703.36 0 4096 0 C4096 1351.68 4096 2703.36 4096 4096 C2744.32 4096 1392.64 4096 0 4096 C0 2744.32 0 1392.64 0 0 Z " fill="#FEFEFE" transform="translate(0,0)"/>
<path d="M0 0 C5.81710888 0.01140031 11.63403487 0.00460541 17.45113754 -0.00687408 C43.34615751 -0.05032129 69.09300984 0.30622879 94.91870117 2.26074219 C96.08640045 2.34578003 97.25409973 2.43081787 98.45718384 2.51843262 C104.69035034 2.97463109 110.91880797 3.47077855 117.14526367 4.01074219 C120.13941477 4.26899781 123.13443202 4.51506039 126.12963867 4.76074219 C128.08282396 4.9267008 130.03595169 5.09333865 131.98901367 5.26074219 C132.86083282 5.33164062 133.73265198 5.40253906 134.63088989 5.47558594 C139.53359903 5.91100566 144.21686763 6.66292106 149.00073242 7.82826233 C151.59561481 8.41337841 154.13991701 8.57694734 156.79370117 8.69824219 C164.79315616 9.22843862 172.62130656 10.55536818 180.52172852 11.86669922 C183.40912977 12.34136469 186.30005768 12.79037593 189.19189453 13.23706055 C192.38604094 13.73320715 195.57766949 14.24470069 198.76928711 14.75683594 C201.12890825 15.13437532 203.48901664 15.50887154 205.84936523 15.88183594 C224.3045841 18.80326409 242.55243444 22.02899103 260.71069336 26.48535156 C264.03681401 27.28929062 267.37005488 28.05330067 270.70776367 28.80761719 C299.33404798 35.29752456 328.00372679 42.26819785 355.85229492 51.58789062 C358.93275052 52.59093122 362.04703476 53.45845622 365.16870117 54.32324219 C371.35668553 56.04873782 377.42831758 58.05760801 383.51147461 60.1159668 C387.46163079 61.45069751 391.41070469 62.73249792 395.41870117 63.88574219 C399.42283708 65.05983628 403.23598221 66.5365367 407.09448242 68.12011719 C410.28761949 69.40973824 413.50457922 70.61974333 416.73120117 71.82324219 C424.11433726 74.57854298 431.48751392 77.35990634 438.85678101 80.15206909 C440.13205354 80.63512109 441.4074611 81.11781678 442.68301392 81.60012817 C452.85555189 85.44692278 462.98010117 89.34108541 472.91870117 93.76074219 C477.33004881 95.70860997 481.74122124 97.62412327 486.23120117 99.38574219 C496.2364622 103.33518733 505.88067412 108.1257586 515.5703125 112.78271484 C516.44582764 113.20214355 517.32134277 113.62157227 518.22338867 114.05371094 C519.00697754 114.43035889 519.79056641 114.80700684 520.59790039 115.19506836 C523.00882511 116.30212563 525.45511406 117.27754358 527.91870117 118.26074219 C530.36777662 119.45037291 532.80265708 120.65576196 535.23120117 121.88574219 C536.67771776 122.61510323 538.12433493 123.34426484 539.57104492 124.07324219 C540.30178223 124.44191406 541.03251953 124.81058594 541.78540039 125.19042969 C543.72196791 126.16203784 545.66397316 127.12097947 547.61010742 128.07324219 C559.53928032 133.92938161 571.20865498 140.26877592 582.88378906 146.61303711 C584.81552264 147.66180792 586.74938228 148.70667907 588.68603516 149.74633789 C596.02597392 153.70353967 603.19708161 157.92457795 610.35620117 162.19824219 C612.64608857 163.56232704 614.93668291 164.92521752 617.22729492 166.28808594 C618.34096436 166.95090576 619.45463379 167.61372559 620.60205078 168.29663086 C623.83459977 170.21093757 627.07740513 172.10638549 630.32495117 173.99511719 C645.86747808 183.04569841 660.76130193 193.08104967 675.68896484 203.09863281 C678.8540095 205.2174351 682.02868404 207.32122412 685.20385742 209.42480469 C690.08767415 212.67934352 694.87089532 216.04472768 699.60620117 219.51074219 C704.88144698 223.35105831 710.17610015 227.15601204 715.52709961 230.89013672 C723.24049143 236.27684879 730.6919564 241.90159861 738.04077148 247.77294922 C740.82135279 249.97586945 743.6330254 252.13795584 746.44165039 254.30493164 C760.02966449 264.7994919 773.24032222 275.74183888 786.30200195 286.88232422 C788.01482089 288.34269506 789.73049648 289.79967297 791.44604492 291.25683594 C797.8056758 296.67084812 804.07999467 302.15209455 810.22338867 307.81152344 C812.38616554 309.77682937 814.56969816 311.70621033 816.77416992 313.62402344 C820.70514582 317.05510378 824.54993156 320.56715135 828.35620117 324.13574219 C829.37121704 325.08598267 829.37121704 325.08598267 830.40673828 326.05541992 C836.42426555 331.72518503 842.2761685 337.55284441 848.07080078 343.44970703 C851.10937967 346.52707629 854.14221517 349.50096291 857.47729492 352.25683594 C860.66764208 354.93033878 863.28672752 357.90182893 865.98120117 361.06542969 C869.74812907 365.33360203 873.86493572 369.26748069 877.91870117 373.26074219 C883.25075284 378.51321099 888.48529999 383.76726749 893.35864258 389.45117188 C895.69958842 392.16652251 898.15592699 394.76944081 900.60620117 397.38574219 C906.38712364 403.60608054 911.92330899 410.01403982 917.41430664 416.49023438 C919.42398872 418.85541036 921.44646885 421.20945873 923.46948242 423.56323242 C924.97707972 425.31844381 926.48145732 427.07636755 927.98510742 428.83496094 C929.88128141 431.05247797 931.78537696 433.26273916 933.69604492 435.46777344 C939.19724472 441.84975567 944.36076724 448.41155909 949.37231445 455.18481445 C952.74585832 459.73438156 956.22449837 464.17601271 959.79370117 468.57324219 C975.97416019 488.58920728 990.48450009 509.9701777 1004.91870117 531.26074219 C1005.57153076 532.22246338 1005.57153076 532.22246338 1006.23754883 533.20361328 C1016.89376786 548.93663583 1027.06622946 565.01353726 1036.91870117 581.26074219 C1037.26175293 581.82212891 1037.60480469 582.38351562 1037.95825195 582.96191406 C1043.78036634 592.49233169 1049.27135454 602.18160688 1054.65258789 611.96679688 C1055.90086656 614.22842942 1057.15965827 616.48383621 1058.42260742 618.73730469 C1063.99607851 628.68954232 1069.37324951 638.73146723 1074.65112305 648.84326172 C1075.94416048 651.30929728 1077.24988958 653.7682228 1078.55932617 656.22558594 C1083.29510238 665.12574614 1087.78474498 674.06155395 1091.91870117 683.26074219 C1093.06074604 685.72094164 1094.2062105 688.17927378 1095.35620117 690.63574219 C1095.79766479 691.58247803 1095.79766479 691.58247803 1096.24804688 692.54833984 C1097.68965584 695.63958443 1099.13965344 698.72622863 1100.60229492 701.80761719 C1105.25744268 711.65545864 1109.57120863 721.63431151 1113.81762695 731.66455078 C1114.83353999 734.05994308 1115.85721661 736.45182984 1116.88354492 738.84277344 C1124.97348782 757.76546819 1132.57026417 776.90831993 1139.23120117 796.38183594 C1141.40712824 802.73132646 1143.73955098 809.02436289 1146.07958984 815.31494141 C1148.2210262 821.13429055 1150.109902 827.00241888 1151.90722656 832.93676758 C1152.88740354 836.15788985 1153.90099636 839.36630058 1154.92651367 842.57324219 C1163.86184225 870.70142074 1172.23885645 899.35359434 1177.92260742 928.33496094 C1178.75797494 932.56681056 1179.7625769 936.71328009 1180.85620117 940.88574219 C1182.34125557 946.69300035 1183.5895046 952.49842485 1184.64208984 958.40234375 C1185.41723697 962.69993154 1186.27249729 966.97201942 1187.19213867 971.24121094 C1193.46905287 1000.44408065 1198.68118867 1029.94970969 1201.65551758 1059.68261719 C1201.89244266 1062.00351592 1202.15320545 1064.31936592 1202.43041992 1066.63574219 C1204.96060594 1087.84230127 1206.98906237 1109.22455252 1207.62792969 1130.57568359 C1207.6542749 1131.45144043 1207.68062012 1132.32719727 1207.70776367 1133.22949219 C1207.72532715 1133.96619141 1207.74289063 1134.70289063 1207.76098633 1135.46191406 C1207.89983511 1137.92594269 1208.14508437 1140.34102653 1208.41848755 1142.79269409 C1208.94865036 1148.0561691 1209.07325643 1153.26141061 1209.07983398 1158.54833984 C1209.08728134 1160.0149556 1209.08728134 1160.0149556 1209.09487915 1161.51119995 C1209.10941524 1164.73240901 1209.1163011 1167.95356825 1209.12182617 1171.17480469 C1209.12465355 1172.29723949 1209.12748093 1173.4196743 1209.13039398 1174.57612228 C1209.14537844 1180.55774922 1209.15460318 1186.53935225 1209.15893555 1192.52099609 C1209.16325651 1197.36287234 1209.17689566 1202.20456396 1209.19995117 1207.04638672 C1209.39833533 1249.6404283 1207.74025783 1291.8543727 1202.86645508 1334.18188477 C1202.48401351 1337.50562314 1202.11268415 1340.83021008 1201.7473278 1344.15584373 C1200.15978304 1358.58820083 1198.39913344 1372.9536661 1195.91870117 1387.26074219 C1195.65385925 1388.80829697 1195.65385925 1388.80829697 1195.38366699 1390.38711548 C1193.89017182 1399.1015336 1192.35421512 1407.8080925 1190.79370117 1416.51074219 C1190.61376932 1417.51489481 1190.61376932 1417.51489481 1190.43020248 1418.53933334 C1186.41944053 1440.89118687 1181.92646719 1463.06300862 1176.45123291 1485.10632324 C1175.72274525 1488.0535046 1175.00987058 1491.00439081 1174.29631042 1493.95521545 C1173.42823308 1497.53814353 1172.54934073 1501.11838443 1171.66870117 1504.69824219 C1171.36359619 1505.9419458 1171.05849121 1507.18564941 1170.74414062 1508.46704102 C1168.64701874 1516.82776335 1166.1760639 1525.0209492 1163.56060791 1533.22903442 C1162.49844337 1536.59090589 1161.47536107 1539.96445788 1160.45385742 1543.33886719 C1160.25206879 1544.00496002 1160.05028015 1544.67105286 1159.84237671 1545.35733032 C1159.43155091 1546.71446619 1159.0209998 1548.07168524 1158.61071777 1549.4289856 C1157.96157628 1551.57564 1157.31085803 1553.72181205 1156.65991211 1555.86791992 C1154.80164639 1561.9992189 1152.94841849 1568.13133348 1151.14916992 1574.28027344 C1148.72828037 1582.54037022 1146.1412772 1590.64223082 1143.02929688 1598.67016602 C1141.45674659 1602.74197581 1140.09248363 1606.8252558 1138.85620117 1611.01074219 C1137.30866301 1616.2055902 1135.41714145 1621.14440872 1133.26245117 1626.11621094 C1130.53937837 1632.48851793 1128.03370504 1638.94676971 1125.54370117 1645.41308594 C1119.16636213 1661.93663487 1112.25642452 1678.13738354 1104.91870117 1694.26074219 C1104.01478881 1696.26322607 1103.11113573 1698.26582701 1102.20776367 1700.26855469 C1091.96880056 1722.8780332 1081.15404467 1745.18041189 1069.62866211 1767.15991211 C1069.02699219 1768.30951416 1068.42532227 1769.45911621 1067.80541992 1770.64355469 C1067.27134521 1771.65820801 1066.73727051 1772.67286133 1066.18701172 1773.71826172 C1064.83318188 1776.28311956 1064.83318188 1776.28311956 1063.91870117 1779.26074219 C1063.25870117 1779.26074219 1062.59870117 1779.26074219 1061.91870117 1779.26074219 C1061.64574219 1780.1425415 1061.3727832 1781.02434082 1061.09155273 1781.93286133 C1060.0036774 1785.01962833 1058.74861249 1787.65762623 1057.15307617 1790.50683594 C1056.59990723 1791.49731934 1056.04673828 1792.48780273 1055.47680664 1793.50830078 C1054.58179443 1795.08732178 1054.58179443 1795.08732178 1053.66870117 1796.69824219 C1053.04753418 1797.79990723 1052.42636719 1798.90157227 1051.78637695 1800.03662109 C1041.71982093 1817.77800668 1030.91987182 1835.08661297 1019.91870117 1852.26074219 C1019.41016602 1853.05512695 1018.90163086 1853.84951172 1018.37768555 1854.66796875 C999.22683087 1884.51516008 978.62685457 1913.23056517 956.91870117 1941.26074219 C956.03311523 1942.40542969 956.03311523 1942.40542969 955.12963867 1943.57324219 C953.39746277 1945.80618933 951.65818598 1948.03348432 949.91870117 1950.26074219 C949.52602051 1950.76686035 949.13333984 1951.27297852 948.72875977 1951.79443359 C940.40521734 1962.522068 931.76728177 1972.92766276 922.78588867 1983.11230469 C920.82542263 1985.36807106 918.89761315 1987.65006191 916.97338867 1989.93676758 C910.86340202 1997.19759358 904.58027028 2004.27519735 898.16088867 2011.26464844 C897.45355591 2012.034823 897.45355591 2012.034823 896.73193359 2012.82055664 C895.77438294 2013.86263052 894.81621367 2014.90413632 893.85742188 2015.94506836 C891.38699453 2018.63328395 888.96779275 2021.35180048 886.60620117 2024.13574219 C882.70060516 2028.65602038 878.42172492 2032.81005975 874.15576172 2036.98681641 C871.14739637 2039.95078564 868.26647432 2042.96354147 865.50854492 2046.16308594 C861.69228885 2050.58185273 857.61944161 2054.70735048 853.48120117 2058.82324219 C852.41289062 2059.89735352 852.41289062 2059.89735352 851.32299805 2060.99316406 C847.25969603 2065.04908497 843.09068458 2068.90715162 838.74267578 2072.6550293 C836.17629787 2074.91430751 833.80774948 2077.31412645 831.41870117 2079.76074219 C827.78310981 2083.44563182 824.07257151 2086.96810123 820.13354492 2090.32714844 C817.80533779 2092.35971022 815.54710456 2094.4547429 813.28881836 2096.56420898 C807.8827811 2101.61334738 802.36970878 2106.41602013 796.59838867 2111.04980469 C793.78616803 2113.37009169 791.10072855 2115.79145353 788.41870117 2118.26074219 C783.61229397 2122.67451331 778.64760034 2126.82434528 773.5690918 2130.91943359 C771.67031317 2132.46261256 769.78614379 2134.02265016 767.90307617 2135.58496094 C759.99309289 2142.14581574 752.03584785 2148.59696144 743.84057617 2154.79980469 C741.56775879 2156.52751546 739.3058207 2158.26904893 737.04370117 2160.01074219 C726.8334963 2167.85649837 716.52306088 2175.49617394 705.94848633 2182.84277344 C703.93312626 2184.2506651 701.93008373 2185.67441178 699.93041992 2187.10449219 C666.29376189 2211.1318369 631.03362728 2233.1497126 594.91870117 2253.26074219 C594.06211914 2253.73785645 593.20553711 2254.2149707 592.32299805 2254.70654297 C571.75580796 2266.12049617 550.92481916 2277.04432075 529.62573242 2287.03027344 C525.34427764 2289.04247929 521.12948671 2291.16816621 516.91870117 2293.32324219 C509.82395248 2296.94136189 502.54266801 2300.06990383 495.1862793 2303.11645508 C491.4029046 2304.69660019 487.74169182 2306.28346328 484.20776367 2308.37011719 C480.96155546 2310.23610861 477.88026632 2311.50987947 474.35620117 2312.76074219 C466.96278101 2315.44212052 459.66459387 2318.34452876 452.37167358 2321.28616333 C423.18306283 2333.04963641 393.64951549 2344.15602413 363.41088867 2352.94042969 C359.60594592 2354.04615363 355.83222108 2355.23289127 352.06103516 2356.44824219 C315.97595043 2368.06444048 278.95409846 2376.31322211 241.84057617 2383.8694458 C240.11249033 2384.22128645 238.38471634 2384.57465794 236.65698242 2384.92822266 C231.81086469 2385.91833464 226.96115004 2386.88629119 222.10571289 2387.82958984 C219.84366344 2388.27553529 217.58640363 2388.74178874 215.32885742 2389.20996094 C203.69123403 2391.57719404 191.99078847 2393.32037644 180.23120117 2394.94824219 C179.05678467 2395.11113235 179.05678467 2395.11113235 177.85864258 2395.27731323 C163.87115462 2397.20756455 163.87115462 2397.20756455 157.39916992 2397.78027344 C154.42990263 2398.04922228 151.64004474 2398.51769683 148.74658203 2399.23046875 C143.91043179 2400.33000357 139.13003533 2400.83437749 134.19213867 2401.22558594 C132.80765533 2401.34248528 132.80765533 2401.34248528 131.39520264 2401.46174622 C128.36195135 2401.71507398 125.32801016 2401.95793017 122.29370117 2402.19824219 C121.230849 2402.2831189 120.16799683 2402.36799561 119.07293701 2402.45544434 C113.51108529 2402.89812634 107.94862442 2403.33194806 102.38549805 2403.75830078 C98.34372873 2404.06910839 94.30355366 2404.39268913 90.2644043 2404.73583984 C6.69699782 2411.81428161 -80.9529217 2409.50173677 -163.64550781 2395.80029297 C-167.20493165 2395.2413271 -170.76790252 2394.78187994 -174.34301758 2394.33496094 C-183.06284201 2393.19692887 -191.64988315 2391.48975382 -200.26879883 2389.76074219 C-203.36596852 2389.14368896 -206.46367593 2388.52939891 -209.56176758 2387.91699219 C-210.30463013 2387.76986786 -211.04749268 2387.62274353 -211.81286621 2387.47116089 C-216.98825443 2386.45412819 -222.17563921 2385.55623007 -227.38232422 2384.71289062 C-275.50788833 2376.65060707 -323.6577616 2363.01326628 -369.79125977 2347.37060547 C-372.93839975 2346.30894783 -376.09034287 2345.26356774 -379.24536133 2344.22558594 C-397.8807329 2338.09123402 -416.35441207 2331.55150486 -434.64379883 2324.44824219 C-435.57716064 2324.08738525 -436.51052246 2323.72652832 -437.47216797 2323.35473633 C-442.18721576 2321.50253442 -446.71618712 2319.48579993 -451.21972656 2317.16967773 C-454.17076534 2315.72879677 -457.23833517 2314.66894101 -460.33129883 2313.57324219 C-470.15218505 2310.0036168 -479.59573693 2305.62887275 -489.08129883 2301.26074219 C-491.26826154 2300.2595677 -493.45564264 2299.25930553 -495.64379883 2298.26074219 C-496.44946289 2297.88949219 -497.25512695 2297.51824219 -498.08520508 2297.13574219 C-500.21940248 2296.16401255 -500.21940248 2296.16401255 -503.08129883 2295.26074219 C-503.08129883 2294.60074219 -503.08129883 2293.94074219 -503.08129883 2293.26074219 C-503.91145508 2293.17953125 -504.74161133 2293.09832031 -505.59692383 2293.01464844 C-509.85977785 2292.09230446 -513.06071043 2290.32659438 -516.83129883 2288.19824219 C-522.90570671 2284.86455485 -529.02768075 2281.87025471 -535.39379883 2279.13574219 C-541.58093366 2276.4630683 -547.36724379 2273.50478619 -553.13208008 2269.99121094 C-557.61862657 2267.3587075 -562.27736611 2265.11521682 -566.95239258 2262.83886719 C-569.75783704 2261.42388646 -572.39117905 2259.87991029 -575.08129883 2258.26074219 C-576.94573789 2257.20537709 -578.81451281 2256.15764773 -580.68676758 2255.11621094 C-581.7534668 2254.52130859 -582.82016602 2253.92640625 -583.91918945 2253.31347656 C-586.132373 2252.0810624 -588.34590837 2250.84927979 -590.55981445 2249.61816406 C-597.14058947 2245.94636827 -603.64318216 2242.17668375 -610.08129883 2238.26074219 C-611.88464299 2237.17343417 -613.68802983 2236.08619695 -615.49145508 2234.99902344 C-627.14992526 2227.94258096 -638.7081893 2220.768816 -650.08129883 2213.26074219 C-650.7303418 2212.8330957 -651.37938477 2212.40544922 -652.0480957 2211.96484375 C-659.67182151 2206.93440329 -667.22610207 2201.81242493 -674.72192383 2196.59277344 C-677.07818614 2194.95275338 -679.4436944 2193.32716435 -681.81567383 2191.70996094 C-697.59789151 2180.94407197 -712.97620287 2169.73221178 -727.9855957 2157.91113281 C-729.97830375 2156.34185201 -731.97442257 2154.77703996 -733.97192383 2153.21386719 C-754.3596184 2137.24943126 -774.55326202 2120.99230647 -793.64379883 2103.48339844 C-795.72402608 2101.58652455 -797.82686781 2099.72681276 -799.95629883 2097.88574219 C-805.15959219 2093.35519786 -810.20751938 2088.65667962 -815.2565918 2083.95605469 C-817.0591103 2082.28135728 -818.8688667 2080.61475001 -820.67895508 2078.94824219 C-830.40684667 2069.93946063 -839.82347473 2060.62586892 -849.20629883 2051.26074219 C-849.84108154 2050.62854767 -850.47586426 2049.99635315 -851.12988281 2049.34500122 C-863.29083354 2037.22318928 -863.29083354 2037.22318928 -868.72924805 2030.83105469 C-870.57079022 2028.69223214 -872.55642818 2026.72516894 -874.58129883 2024.76074219 C-877.90899346 2021.47219691 -881.03466324 2018.09692595 -884.07739258 2014.54589844 C-886.1381828 2012.1958745 -888.25619385 2009.91024003 -890.3894043 2007.6262207 C-895.45581373 2002.20063142 -900.28264082 1996.66972057 -904.93286133 1990.87792969 C-907.09641655 1988.24232605 -909.34519443 1985.71650844 -911.64379883 1983.19824219 C-915.1925176 1979.29526233 -918.53088802 1975.28516981 -921.79614258 1971.14355469 C-924.07834105 1968.26447353 -926.39255841 1965.41419935 -928.71533203 1962.56787109 C-938.92292826 1950.05744116 -948.85508067 1937.37044908 -958.48364258 1924.40869141 C-960.1259158 1922.20075745 -961.77545799 1919.99836889 -963.42504883 1917.79589844 C-972.3353248 1905.85397853 -980.77946639 1893.63147183 -989.08129883 1881.26074219 C-989.89813999 1880.0456998 -990.71503688 1878.83069487 -991.53198242 1877.61572266 C-1010.89592532 1848.8013497 -1010.89592532 1848.8013497 -1019.08129883 1835.26074219 C-1019.76748291 1834.13079834 -1019.76748291 1834.13079834 -1020.4675293 1832.97802734 C-1027.83488764 1820.83315153 -1035.01694204 1808.58409005 -1042.08129883 1796.26074219 C-1043.02634277 1794.62165894 -1043.02634277 1794.62165894 -1043.99047852 1792.94946289 C-1046.03371757 1789.37162026 -1047.9836743 1785.74665771 -1049.90942383 1782.10449219 C-1050.43847321 1781.10730164 -1050.43847321 1781.10730164 -1050.97821045 1780.08996582 C-1052.09695454 1777.98077823 -1053.21418441 1775.8707933 -1054.33129883 1773.76074219 C-1055.42955365 1771.68869171 -1056.52812787 1769.61681093 -1057.62683105 1767.54499817 C-1058.35758742 1766.16668422 -1059.08797414 1764.78817423 -1059.81799316 1763.4094696 C-1061.61484491 1760.01750319 -1063.41794214 1756.62916185 -1065.2355957 1753.24829102 C-1069.01135949 1746.22112635 -1072.68171341 1739.16691869 -1076.08129883 1731.94824219 C-1076.75986938 1730.51291138 -1076.75986938 1730.51291138 -1077.45214844 1729.04858398 C-1078.45312647 1726.93067616 -1079.45300047 1724.81224628 -1080.4519043 1722.69335938 C-1081.87639856 1719.69240203 -1083.3178001 1716.70074353 -1084.76805115 1713.71221924 C-1100.8712522 1680.49129852 -1114.6900181 1646.2340742 -1127.1652832 1611.49633789 C-1128.07654413 1608.9614684 -1128.99289405 1606.42847621 -1129.90942383 1603.89550781 C-1133.15479995 1594.8881401 -1136.22624625 1585.86096433 -1139.00170898 1576.69726562 C-1140.05026934 1573.35951449 -1141.22026296 1570.09559024 -1142.45629883 1566.82324219 C-1145.6381697 1558.09066282 -1147.97868971 1549.11939227 -1150.44067383 1540.16308594 C-1151.927058 1534.76771548 -1153.52722319 1529.42712876 -1155.25708008 1524.10449219 C-1155.95160902 1521.70820276 -1156.51859092 1519.34527292 -1157.04614258 1516.90917969 C-1157.96451915 1512.67349168 -1159.11525774 1508.54359511 -1160.33129883 1504.38574219 C-1162.91487786 1495.3422362 -1164.95025628 1486.19389087 -1166.93774414 1477.00341797 C-1168.09527463 1471.65676724 -1169.29388989 1466.33297635 -1170.63989258 1461.03027344 C-1171.91888639 1455.98553749 -1173.02584847 1450.93121307 -1174.01879883 1445.82324219 C-1174.27028687 1444.54392822 -1174.27028687 1444.54392822 -1174.52685547 1443.23876953 C-1174.87603611 1441.45718246 -1175.22360772 1439.67527928 -1175.56958008 1437.89306641 C-1176.05802057 1435.38048749 -1176.55359909 1432.8694049 -1177.05004883 1430.35839844 C-1182.19515184 1404.11212397 -1186.12954325 1377.74117268 -1189.45385742 1351.21166992 C-1189.89263882 1347.7165324 -1190.35256986 1344.22478799 -1190.82202148 1340.73364258 C-1192.86306293 1325.3371294 -1194.13792594 1309.93964907 -1195.20629883 1294.44824219 C-1195.37632804 1292.06864598 -1195.54689957 1289.68908847 -1195.71801758 1287.30957031 C-1195.88388973 1284.97431985 -1196.04927129 1282.63903448 -1196.21411133 1280.30371094 C-1196.287034 1279.27400681 -1196.35995667 1278.24430267 -1196.43508911 1277.18339539 C-1196.66258494 1273.87649614 -1196.87558101 1270.56907044 -1197.08129883 1267.26074219 C-1197.12469894 1266.56820972 -1197.16809906 1265.87567726 -1197.21281433 1265.16215897 C-1197.96814818 1252.86638135 -1198.25596707 1240.60936847 -1198.28442383 1228.29199219 C-1198.29131937 1226.41664613 -1198.2982686 1224.54130027 -1198.30526733 1222.66595459 C-1198.32431321 1216.69754846 -1198.3289271 1210.72917483 -1198.33129883 1204.76074219 C-1198.33218254 1203.74658737 -1198.33306625 1202.73243256 -1198.33397675 1201.68754578 C-1198.35798249 1170.66399744 -1197.9394743 1139.80122336 -1195.30291748 1108.87005615 C-1195.06698009 1106.09215493 -1194.84180234 1103.31348657 -1194.61694336 1100.53466797 C-1193.60099526 1088.19344097 -1192.2918847 1075.91600048 -1190.70629883 1063.63574219 C-1190.48122936 1061.87728545 -1190.25621416 1060.11882177 -1190.03125 1058.36035156 C-1189.58581793 1054.88759681 -1189.1366993 1051.41534344 -1188.68530273 1047.94335938 C-1188.17815477 1044.03304117 -1187.69447232 1040.12024274 -1187.21801758 1036.20605469 C-1185.07002622 1019.10587872 -1182.03530783 1002.16246849 -1179.01879883 985.19824219 C-1178.79906403 983.9578418 -1178.57932922 982.71744141 -1178.35293579 981.43945312 C-1177.71435635 977.84634695 -1177.06906392 974.25451819 -1176.42114258 970.66308594 C-1176.23057281 969.59215195 -1176.04000305 968.52121796 -1175.84365845 967.41783142 C-1174.71114367 961.20045384 -1173.35611827 955.08412422 -1171.77354431 948.96546936 C-1170.65272078 944.58621095 -1169.68876875 940.17267297 -1168.70629883 935.76074219 C-1166.33215161 925.21692179 -1163.7747648 914.72729786 -1161.08129883 904.26074219 C-1160.90211914 903.56335937 -1160.72293945 902.86597656 -1160.53833008 902.14746094 C-1158.59276584 894.61388513 -1156.49540607 887.15516078 -1154.10864258 879.74902344 C-1153.22438428 876.74657987 -1152.47095579 873.75613115 -1151.74145508 870.71386719 C-1150.06105963 863.90855527 -1147.85633566 857.3243808 -1145.58129883 850.69824219 C-1143.0745073 843.37228872 -1140.66152812 836.07749736 -1138.71972656 828.57910156 C-1137.94598706 825.76937677 -1136.94646726 823.09742181 -1135.88623047 820.38549805 C-1134.93990879 817.88751881 -1134.10107338 815.36414558 -1133.26489258 812.82714844 C-1131.08262135 806.24736841 -1128.84279189 799.68866917 -1126.58129883 793.13574219 C-1126.01475586 791.48251953 -1126.01475586 791.48251953 -1125.43676758 789.79589844 C-1123.4193168 783.95153071 -1121.30322819 778.17542849 -1118.9699707 772.44970703 C-1117.78548489 769.53209719 -1116.68607781 766.58430772 -1115.58129883 763.63574219 C-1114.24584767 760.14083808 -1112.90095425 756.75111109 -1111.14379883 753.44824219 C-1109.10134835 749.56923342 -1107.64243059 745.49635597 -1106.14379883 741.38574219 C-1104.16435561 735.9636811 -1101.97479076 730.84656016 -1099.28833008 725.72949219 C-1097.90474576 722.89963689 -1096.80598601 720.02484556 -1095.70629883 717.07324219 C-1093.14894211 710.24017865 -1090.09968134 703.72665098 -1086.96044922 697.14672852 C-1086.0370646 695.16584927 -1085.16381044 693.16726864 -1084.29223633 691.16308594 C-1081.50554745 684.8590805 -1078.36794759 678.72765649 -1075.26879883 672.57324219 C-1074.67776367 671.39568359 -1074.08672852 670.218125 -1073.4777832 669.00488281 C-1072.28293909 666.62431554 -1071.08689219 664.24435158 -1069.88964844 661.86499023 C-1068.66178616 659.42212134 -1067.44200015 656.97543468 -1066.22802734 654.52563477 C-1063.17558423 648.37153035 -1060.0812973 642.27206952 -1056.64379883 636.32324219 C-1053.79138799 631.32063616 -1051.01460409 626.29369764 -1048.33129883 621.19824219 C-1040.13635944 605.71705539 -1031.44930185 590.56054084 -1021.98754883 575.81933594 C-1019.06529896 571.2630874 -1016.25657616 566.6425977 -1013.45629883 562.01074219 C-1008.91096133 554.51918701 -1004.13959366 547.20746908 -999.22485352 539.95410156 C-997.47251078 537.35925758 -995.74772952 534.74622251 -994.01879883 532.13574219 C-990.18994298 526.39627963 -986.28511612 520.71172926 -982.33374023 515.05615234 C-981.47711008 513.8281488 -980.62272099 512.5985797 -979.77026367 511.36767578 C-971.78565951 499.84070699 -963.37677826 488.67422623 -954.83618164 477.5546875 C-952.62296364 474.66161623 -950.44308728 471.7456729 -948.26879883 468.82324219 C-935.69929478 452.03228206 -922.31857996 435.87176522 -908.59643555 420.01416016 C-907.01551685 418.18461487 -905.44070513 416.34993365 -903.86645508 414.51464844 C-897.24135907 406.8079041 -890.47095088 399.26455528 -883.53979492 391.83251953 C-881.57480285 389.71490672 -879.63102109 387.57833343 -877.6862793 385.44213867 C-873.81055921 381.18659001 -869.88549851 377.01214601 -865.7722168 372.98388672 C-864.18448396 371.36589389 -862.7314662 369.69792596 -861.27270508 367.96386719 C-856.0299005 361.93927728 -850.34506883 356.33848806 -844.70019531 350.69433594 C-842.75077102 348.74269387 -840.80952259 346.78314549 -838.8684082 344.82324219 C-837.63126634 343.58317148 -836.39365348 342.34357042 -835.15551758 341.10449219 C-834.57533371 340.5171228 -833.99514984 339.92975342 -833.39738464 339.32458496 C-829.31016138 335.26074219 -829.31016138 335.26074219 -827.08129883 335.26074219 C-826.75129883 334.27074219 -826.42129883 333.28074219 -826.08129883 332.26074219 C-824.52807617 330.71337891 -824.52807617 330.71337891 -822.54223633 329.06542969 C-818.12073321 325.31355288 -813.91048763 321.37794296 -809.70629883 317.38574219 C-800.98115131 309.1449055 -792.20335037 301.12808345 -782.86645508 293.57714844 C-780.02598521 291.21473801 -777.29953983 288.7624519 -774.58129883 286.26074219 C-769.25149775 281.3669474 -763.71294305 276.80053702 -758.08129883 272.26074219 C-756.85124867 271.25140125 -755.62213673 270.24091621 -754.39379883 269.22949219 C-746.45398232 262.70637647 -738.38616572 256.40919142 -730.13598633 250.28417969 C-725.97892063 247.19601634 -721.87347593 244.04300309 -717.76879883 240.88574219 C-705.90361096 231.78708447 -694.00635963 222.67856899 -681.47973633 214.50292969 C-677.70537602 212.03316981 -673.99368837 209.47269198 -670.27368164 206.92211914 C-632.60785582 181.10589315 -593.38476891 157.58708959 -552.79321289 136.66748047 C-550.19035961 135.31731477 -547.59864189 133.94837072 -545.01098633 132.56933594 C-536.86207506 128.22668933 -528.68125924 124.04554425 -520.30053711 120.16699219 C-514.70597513 117.5757712 -509.18835716 114.85000099 -503.69580078 112.04931641 C-498.89447522 109.61572404 -494.01112662 107.42027247 -489.08129883 105.26074219 C-487.29792874 104.47031352 -485.51456445 103.67987175 -483.73129272 102.88922119 C-481.09172885 101.7217067 -478.44848831 100.56266814 -475.8046875 99.40478516 C-474.43728464 98.80430197 -473.07108602 98.20106968 -471.70605469 97.59521484 C-469.71301249 96.71116013 -467.71603692 95.83660403 -465.71801758 94.96386719 C-464.53941162 94.44469727 -463.36080566 93.92552734 -462.14648438 93.390625 C-459.08129883 92.26074219 -459.08129883 92.26074219 -455.08129883 92.26074219 C-455.08129883 91.60074219 -455.08129883 90.94074219 -455.08129883 90.26074219 C-410.39221633 72.90878306 -410.39221633 72.90878306 -396.48364258 68.43652344 C-393.04505908 67.29817278 -393.04505908 67.29817278 -389.67114258 65.77246094 C-385.73748928 64.11596058 -381.80871138 62.91268774 -377.70629883 61.76074219 C-371.77439977 60.07677817 -365.92205102 58.23757327 -360.08129883 56.26074219 C-324.09247787 44.22346965 -285.92963233 32.2354797 -248.39379883 26.32324219 C-243.47988266 25.54584295 -238.66521218 24.51694537 -233.81958008 23.40527344 C-224.57255429 21.32114439 -215.28781421 19.54533403 -205.95629883 17.88574219 C-205.13667664 17.73900055 -204.31705444 17.59225891 -203.47259521 17.44107056 C-190.24673642 15.08013666 -176.99247486 12.94042677 -163.70629883 10.94824219 C-162.88965759 10.82531799 -162.07301636 10.7023938 -161.23162842 10.57574463 C-143.90885173 7.98085605 -126.57251246 6.03053914 -109.12304688 4.51074219 C-106.33707545 4.26672245 -103.55199392 4.01395996 -100.7668457 3.76074219 C-94.54226505 3.20605818 -88.31357302 2.72034798 -82.08129883 2.26074219 C-80.85108002 2.16893677 -79.62086121 2.07713135 -78.35336304 1.98254395 C-52.24405868 0.1065521 -26.16797025 -0.05169142 0 0 Z " fill="#1A2960" transform="translate(2042.081298828125,844.7392578125)"/>
<path d="M0 0 C0.69268982 0.0958136 1.38537964 0.1916272 2.09906006 0.29034424 C33.56906026 4.66696678 64.94017264 10.33868103 95.69189453 18.39599609 C97.37938858 18.83759333 99.06803083 19.27480942 100.75732422 19.70947266 C127.38470679 26.5761946 153.4829075 35.0632125 179.18554688 44.82104492 C183.51465741 46.46165744 187.87117807 47.99553099 192.25 49.5 C197.77001114 51.452657 202.88278528 53.83583024 208.07421875 56.53125 C211.93977268 58.47176839 215.90964631 60.0818443 219.9140625 61.7109375 C224.29833491 63.54234243 228.59319114 65.55320751 232.89453125 67.5703125 C235.00270337 68.54086721 237.12739641 69.47616167 239.26538086 70.37915039 C242.86153946 71.91622793 246.36016345 73.61539126 249.859375 75.36328125 C250.80420746 75.83497993 250.80420746 75.83497993 251.76812744 76.31620789 C253.09297999 76.97829622 254.41733537 77.64138024 255.74121094 78.30541992 C257.72964593 79.30229575 259.72015978 80.29492191 261.7109375 81.28710938 C268.45654406 84.65823127 275.13960851 88.10893573 281.7421875 91.75512695 C284.34811261 93.19193622 286.9861648 94.56227622 289.625 95.9375 C326.5472316 115.80517701 362.03814369 139.76623435 394.6484375 166.11328125 C396.84756082 167.87769415 399.07375111 169.59883948 401.3125 171.3125 C406.78488758 175.55384081 412.03179178 180.05915587 417.29736328 184.55175781 C418.9835147 185.9859778 420.67601319 187.41228658 422.37109375 188.8359375 C439.77263385 203.4580295 456.22878197 219.05234628 472.2734375 235.14306641 C474.52228794 237.39734171 476.77652448 239.64613376 479.03125 241.89453125 C480.48990452 243.3538457 481.94824927 244.81346985 483.40625 246.2734375 C484.39703552 247.26118668 484.39703552 247.26118668 485.40783691 248.26889038 C489.25662536 252.13688228 492.92486607 256.11361035 496.48623657 260.24812317 C498.56322756 262.65182266 500.71951661 264.97920737 502.875 267.3125 C506.96437787 271.79662928 510.84619021 276.40267238 514.65625 281.125 C516.75052508 283.69397743 518.88255988 286.22113084 521.03759766 288.73876953 C526.50611369 295.13046721 531.69767353 301.68733579 536.77490234 308.39257812 C537.98009426 309.97388214 539.20281717 311.54177531 540.42578125 313.109375 C546.78653897 321.26575332 552.77835314 329.65089107 558.69580078 338.13330078 C559.78002121 339.68514455 560.87151533 341.23190337 561.96484375 342.77734375 C585.72263646 376.37365768 606.12686097 412.2997779 624.65014648 449.00476074 C625.5288579 450.74584147 626.41180654 452.48478171 627.29492188 454.22363281 C630.50435886 460.64821753 633.23543437 467.10073059 635.73803711 473.8293457 C636.98308104 476.95749149 638.39879975 479.90512035 639.9375 482.8984375 C643.39555162 489.63544727 646.21829419 496.58773943 649 503.625 C649.39119019 504.6069635 649.39119019 504.6069635 649.7902832 505.60876465 C653.40565446 514.6903515 656.79673074 523.80986779 659.71875 533.140625 C660.67021774 536.1292196 661.78845921 539.02004168 662.96875 541.92578125 C674.64810541 570.73667714 682.70393173 602.6241031 688.43603516 633.11669922 C689.30467121 637.55764805 690.29395687 641.97100897 691.26879883 646.38964844 C695.91280222 667.51407851 699.31733384 688.66069513 701.68408203 710.15722656 C701.96179566 712.65621995 702.25706502 715.15223767 702.55859375 717.6484375 C704.12546841 731.23049319 704.67798162 744.88236711 705.30297852 758.53369141 C705.36171143 759.78367668 705.36171143 759.78367668 705.42163086 761.05891418 C705.49503197 762.62964853 705.56561914 764.20051801 705.6328125 765.77153015 C705.78397554 768.99518614 706.01364336 772.08589622 706.52075195 775.27856445 C707.19858861 780.54207139 707.14247716 785.75321181 707.1328125 791.0546875 C707.13376923 792.22846954 707.13472595 793.40225159 707.13571167 794.61160278 C707.1363913 797.10125787 707.13455214 799.59091474 707.13037109 802.08056641 C707.12510638 805.79984796 707.13027801 809.51900388 707.13671875 813.23828125 C707.14406732 834.48353226 706.66777548 855.66257862 704.5625 876.8125 C704.44068359 878.12541016 704.31886719 879.43832031 704.19335938 880.79101562 C703.53667526 887.61304487 702.6656846 894.33132175 701.47973633 901.08032227 C700.63579997 906.21652326 700.11969354 911.38878371 699.5625 916.5625 C698.66059727 924.62755835 697.69246277 932.66910093 696.4375 940.6875 C696.322854 941.43394775 696.20820801 942.18039551 696.09008789 942.94946289 C695.57830159 946.11062412 694.95824734 949.13878112 694.03515625 952.20703125 C693.11827753 955.56661327 692.54504855 958.74478214 692.04296875 962.18359375 C691.10602543 968.56373159 689.7989995 974.79023342 688.3125 981.0625 C688.05412354 982.1659375 687.79574707 983.269375 687.52954102 984.40625 C684.48903141 997.30461223 681.30012174 1010.16573858 678 1023 C677.78520996 1023.83934082 677.57041992 1024.67868164 677.34912109 1025.54345703 C673.89509462 1038.90878807 669.44420483 1051.94103152 665.01318359 1065.00878906 C663.76658228 1068.6891166 662.53770264 1072.37499692 661.3125 1076.0625 C658.54166667 1084.375 655.77083333 1092.6875 653 1101 C652.34 1101 651.68 1101 651 1101 C650.773125 1102.258125 650.54625 1103.51625 650.3125 1104.8125 C649.27326538 1109.51485241 647.51055375 1113.61211662 645.4140625 1117.93359375 C644.26828998 1120.41821096 643.2493314 1122.88666888 642.2578125 1125.43359375 C639.5405583 1132.29309713 636.38588487 1138.95007317 633.25 1145.625 C632.93642548 1146.2941745 632.62285095 1146.963349 632.29977417 1147.65280151 C628.05343266 1156.71172651 623.78536809 1165.75379339 619.20410156 1174.64941406 C617.69242626 1177.60042984 616.20345129 1180.56268524 614.7109375 1183.5234375 C606.47323888 1199.78989462 597.60649057 1215.49082928 588 1231 C587.10869091 1232.45661287 586.21799754 1233.91360282 585.328125 1235.37109375 C571.41200577 1258.03616558 556.14878051 1279.87591582 540 1301 C539.15236084 1302.10891602 539.15236084 1302.10891602 538.28759766 1303.24023438 C531.18598787 1312.50507962 523.94713959 1321.60814053 516.32666016 1330.45117188 C514.96010849 1332.04657191 513.60905985 1333.65397755 512.26171875 1335.265625 C506.53011156 1342.11517431 500.63006662 1348.76070974 494.55220032 1355.30502319 C492.63845362 1357.3948026 490.76012752 1359.51506526 488.87573242 1361.63134766 C484.42068781 1366.58321558 479.80532663 1371.34005107 475.08984375 1376.04296875 C474.27810196 1376.85566727 473.46636017 1377.66836578 472.63002014 1378.50569153 C470.92962282 1380.20676351 469.22798554 1381.90659689 467.52514648 1383.60522461 C464.93683345 1386.18816516 462.35392439 1388.77642341 459.77148438 1391.36523438 C458.10709146 1393.02896665 456.44238846 1394.69238879 454.77734375 1396.35546875 C453.63482399 1397.50102486 453.63482399 1397.50102486 452.46922302 1398.66972351 C448.34254569 1402.77860939 444.13214502 1406.72750322 439.7149353 1410.5231781 C437.32086271 1412.58484121 435.00806082 1414.73127818 432.6875 1416.875 C428.19851943 1420.96880209 423.58756524 1424.85469667 418.859375 1428.66796875 C416.36202575 1430.70474129 413.90787338 1432.783147 411.46508789 1434.88476562 C403.92212052 1441.36108584 396.08180753 1447.40563708 388.14208984 1453.38574219 C386.07657999 1454.94229008 384.01634275 1456.50557789 381.95703125 1458.0703125 C350.12663956 1482.19018792 316.24924306 1504.19383959 281 1523 C279.81739854 1523.64265942 278.6351285 1524.28592895 277.453125 1524.9296875 C255.19436884 1537 255.19436884 1537 251 1537 C251 1537.66 251 1538.32 251 1539 C250.20078125 1539.29132813 249.4015625 1539.58265625 248.578125 1539.8828125 C241.62031405 1542.47974194 235.0183222 1545.37362746 228.4609375 1548.86328125 C226 1550 226 1550 223 1550 C223 1550.66 223 1551.32 223 1552 C222.15824219 1552.30550781 221.31648438 1552.61101562 220.44921875 1552.92578125 C211.40137639 1556.24912094 202.47556155 1559.83086294 193.5625 1563.5 C185.20595382 1566.93678488 176.85047231 1570.27329507 168.28735352 1573.16210938 C165.38571761 1574.1415515 162.58315052 1575.18464813 159.78125 1576.42578125 C154.75600382 1578.6220518 149.49267974 1580.10371664 144.25 1581.6875 C142.53949463 1582.20751587 142.53949463 1582.20751587 140.79443359 1582.73803711 C138.39517401 1583.46582675 135.99525885 1584.19145834 133.59472656 1584.91503906 C130.15197756 1585.95413011 126.71261716 1587.00385509 123.2734375 1588.0546875 C97.83044781 1595.77437714 72.11199703 1601.99919702 46 1607 C45.35089661 1607.12503906 44.70179321 1607.25007813 44.03302002 1607.37890625 C19.86642683 1612.01969718 -4.40441618 1614.97633268 -28.87890625 1617.46679688 C-32.14045981 1617.8004135 -35.39700553 1618.15933901 -38.65234375 1618.54882812 C-61.53978523 1621.24273891 -84.60553958 1621.1885892 -107.62158203 1621.18530273 C-110.4536782 1621.18522146 -113.28561264 1621.19219329 -116.11767578 1621.20581055 C-143.12212607 1621.3332007 -169.77661791 1619.54021023 -196.625 1616.625 C-197.63128448 1616.51706116 -198.63756897 1616.40912231 -199.67434692 1616.2979126 C-215.19236557 1614.62745588 -230.6243245 1612.71065196 -246 1610 C-246.73412109 1609.87415527 -247.46824219 1609.74831055 -248.22460938 1609.61865234 C-262.54564061 1607.15195257 -276.82572713 1604.06370573 -290.91629028 1600.51579285 C-293.54678606 1599.86465085 -296.18724514 1599.2585658 -298.82862854 1598.65333557 C-307.88219124 1596.57112775 -316.83992522 1594.2070495 -325.78442383 1591.70043945 C-328.06403997 1591.06206876 -330.34536054 1590.43009398 -332.62695312 1589.79882812 C-345.95831619 1586.09332606 -359.17486236 1582.21687493 -372.05078125 1577.1171875 C-374.70385747 1576.11218115 -377.33443814 1575.27201115 -380.0625 1574.5 C-384.77435556 1573.14619238 -389.18816908 1571.30250024 -393.69140625 1569.375 C-397.28178184 1567.88289586 -400.91356476 1566.5271362 -404.5625 1565.1875 C-417.60313535 1560.36830685 -430.40456425 1554.88148939 -443 1549 C-444.1446875 1548.46761719 -445.289375 1547.93523437 -446.46875 1547.38671875 C-449.02800976 1546.19557035 -451.58482493 1544.99933246 -454.140625 1543.80078125 C-456.58212658 1542.6574707 -459.02940193 1541.5326146 -461.484375 1540.41796875 C-469.42138361 1536.79340149 -477.19450473 1532.89809242 -484.9375 1528.875 C-485.90880859 1528.37202393 -486.88011719 1527.86904785 -487.88085938 1527.35083008 C-492.69020418 1524.83305024 -497.34895291 1522.20883769 -501.91870117 1519.28100586 C-505.25767621 1517.22592058 -508.72137674 1515.40584446 -512.17089844 1513.54443359 C-516.71323893 1511.06472649 -521.17120871 1508.44714278 -525.625 1505.8125 C-526.57358887 1505.25151611 -527.52217773 1504.69053223 -528.49951172 1504.11254883 C-537.15016254 1498.96473587 -545.60666614 1493.55474553 -554 1488 C-555.54300781 1486.99066406 -555.54300781 1486.99066406 -557.1171875 1485.9609375 C-580.99874559 1470.23405778 -604.176413 1453.20060346 -625.9140625 1434.6171875 C-628.75605565 1432.19308244 -631.65290065 1429.84268601 -634.5625 1427.5 C-639.63399782 1423.37478749 -644.43388538 1419.00357947 -649.22265625 1414.55859375 C-651.48930455 1412.4704719 -653.78332891 1410.43993504 -656.125 1408.4375 C-660.14979407 1404.95546862 -663.84328456 1401.17071503 -667.58203125 1397.38671875 C-669.56267583 1395.43167216 -671.56288164 1393.60529076 -673.6875 1391.8125 C-682.53199692 1384.23150264 -690.88693879 1375.71854944 -698.3984375 1366.8203125 C-700.34037422 1364.61313564 -702.40738124 1362.56462386 -704.5 1360.5 C-708.54818477 1356.49263726 -712.30825355 1352.33473165 -716 1348 C-716.90450448 1346.9475354 -717.80949265 1345.8954864 -718.71484375 1344.84375 C-721.30841919 1341.8287451 -723.89316002 1338.80629471 -726.47558594 1335.78173828 C-727.88823225 1334.13063438 -729.30661959 1332.48467155 -730.7265625 1330.83984375 C-747.28976495 1311.57107394 -762.82746878 1291.0847482 -777 1270 C-777.44375977 1269.34386719 -777.88751953 1268.68773438 -778.34472656 1268.01171875 C-788.76565069 1252.59523329 -798.66817362 1236.87419673 -808.375 1221 C-808.94589355 1220.06905518 -809.51678711 1219.13811035 -810.10498047 1218.17895508 C-813.93439067 1211.88682058 -817.53052091 1205.496994 -821 1199 C-821.42168457 1198.21189941 -821.84336914 1197.42379883 -822.27783203 1196.61181641 C-823.4833085 1194.34870034 -824.68112773 1192.08175752 -825.875 1189.8125 C-826.51344849 1188.59929077 -826.51344849 1188.59929077 -827.16479492 1187.36157227 C-831.21959025 1179.62816852 -835.12649065 1171.82535933 -839 1164 C-839.87402057 1162.24951063 -840.74888765 1160.49944338 -841.625 1158.75 C-842.00785156 1157.98042969 -842.39070313 1157.21085937 -842.78515625 1156.41796875 C-843.67664963 1154.64358161 -844.58236632 1152.87632191 -845.49609375 1151.11328125 C-848.46065271 1145.33941455 -850.95591881 1139.62787803 -853.078125 1133.49609375 C-853.88315635 1131.31636904 -854.78308403 1129.35760491 -855.875 1127.3125 C-858.16227519 1122.92412319 -859.80997923 1118.31473684 -861.50952148 1113.67773438 C-863.22508441 1109.01538379 -865.03822892 1104.40476285 -866.91894531 1099.80664062 C-871.09424113 1089.58257013 -874.698997 1079.24821255 -878.09814453 1068.74365234 C-879.01622579 1065.95063741 -879.969693 1063.17204316 -880.93359375 1060.39453125 C-886.03798584 1045.59879337 -890.15387823 1030.65178887 -894.06469727 1015.50756836 C-894.97917426 1012.0781006 -895.97150218 1008.68005088 -896.98046875 1005.27734375 C-899.22878334 997.47751389 -900.91336975 989.58724015 -902.55493164 981.64233398 C-903.05997221 979.19972554 -903.57329079 976.75896981 -904.08789062 974.31835938 C-907.12548599 959.82156647 -909.72919495 945.26211692 -912 930.625 C-912.16733643 929.54790771 -912.33467285 928.47081543 -912.50708008 927.36108398 C-913.95557159 917.78337381 -915.0595135 908.17857929 -916.04882812 898.54345703 C-916.16033203 897.46821777 -916.27183594 896.39297852 -916.38671875 895.28515625 C-916.48170654 894.33519775 -916.57669434 893.38523926 -916.67456055 892.40649414 C-916.94264366 889.86167167 -916.94264366 889.86167167 -918 887 C-918.20784876 884.76255858 -918.36720448 882.52049122 -918.5 880.27734375 C-918.5609082 879.28717003 -918.5609082 879.28717003 -918.62304688 878.2769928 C-918.7525146 876.1640391 -918.87660873 874.05081655 -919 871.9375 C-919.12410836 869.84923141 -919.24944433 867.76105269 -919.37695312 865.67298889 C-919.49344854 863.75993016 -919.60621059 861.84664514 -919.71875 859.93334961 C-919.919848 857.12094516 -920.19143464 854.36998462 -920.52075195 851.57446289 C-921.28087415 844.12299932 -921.16448575 836.6378643 -921.16796875 829.15625 C-921.17119587 827.50321425 -921.17456093 825.85017876 -921.17805481 824.19714355 C-921.18402569 820.72745101 -921.18589756 817.25778325 -921.18530273 813.78808594 C-921.18522255 810.30560998 -921.19199196 806.82326858 -921.20581055 803.34082031 C-921.27637238 785.27472421 -921.16229291 767.26134813 -920.08203125 749.22265625 C-920.04094931 748.52933197 -919.99986736 747.83600769 -919.95754051 747.12167358 C-919.28607607 736.09079292 -918.02711707 725.21453065 -916.33935547 714.29785156 C-915.82457493 710.81215773 -915.44485591 707.31472647 -915.0625 703.8125 C-914.1960907 696.14496769 -913.11099992 688.51051614 -912 680.875 C-911.8337915 679.71202393 -911.66758301 678.54904785 -911.49633789 677.35083008 C-910.66768555 671.74346648 -909.64573851 666.43429572 -908 661 C-907.53032257 658.52672753 -907.09528356 656.04672748 -906.6875 653.5625 C-903.3519162 634.08182424 -898.86611884 614.95656775 -893.76074219 595.86816406 C-893.13727937 593.51757319 -892.53202498 591.16462837 -891.9453125 588.8046875 C-889.72547095 580.02354437 -886.90704131 571.4842984 -883.99243164 562.91137695 C-882.26101786 557.81850745 -880.59303475 552.71801688 -879.03125 547.5703125 C-867.15610219 508.66996206 -850.7500346 470.01313521 -831.2421875 434.3125 C-829.87514674 431.76756878 -828.55935776 429.20007025 -827.25 426.625 C-815.48991311 403.55181237 -801.83258643 381.65486698 -787.47631836 360.12182617 C-786.19717861 358.20202616 -784.92176176 356.279789 -783.64648438 354.35742188 C-776.08374487 342.9871534 -768.23331885 331.83414929 -760 320.9375 C-759.49927979 320.27322998 -758.99855957 319.60895996 -758.48266602 318.92456055 C-756.99064073 316.94803474 -755.49541192 314.97396398 -754 313 C-753.56155762 312.41831055 -753.12311523 311.83662109 -752.67138672 311.23730469 C-747.21536899 304.00320038 -741.54750418 297.00680983 -735.65625 290.125 C-733.19835363 287.24919041 -730.81304799 284.31934117 -728.4375 281.375 C-724.56187067 276.61192782 -720.48765711 272.06635751 -716.33203125 267.546875 C-714.37594748 265.41058251 -712.45812303 263.25219343 -710.5625 261.0625 C-701.28316024 250.42336748 -691.50433183 240.34489915 -681.51049805 230.38012695 C-679.30205337 228.1770789 -677.09905449 225.96868531 -674.89648438 223.75976562 C-673.46907076 222.33301235 -672.04134723 220.90656905 -670.61328125 219.48046875 C-669.96724442 218.83240768 -669.32120758 218.18434662 -668.65559387 217.51664734 C-664.82824286 213.70861251 -660.89126952 210.08219746 -656.79858398 206.56047058 C-654.02625521 204.15516867 -651.36409219 201.63557251 -648.6875 199.125 C-643.86763923 194.64132731 -638.92496022 190.3837577 -633.7890625 186.26171875 C-631.31325687 184.25402763 -628.88619867 182.19962163 -626.47045898 180.12036133 C-618.97826003 173.68521019 -611.19349374 167.67842937 -603.30517578 161.73876953 C-600.95680973 159.96742204 -598.61672831 158.18553112 -596.27734375 156.40234375 C-578.64292343 143.00819351 -560.56916565 130.25489726 -541.69726562 118.65917969 C-539.76321531 117.46947966 -537.83261724 116.27416043 -535.90429688 115.07519531 C-519.57909668 104.92826378 -503.01013247 95.47846151 -485.97900391 86.56738281 C-483.45670988 85.24029482 -480.94877645 83.89266576 -478.44921875 82.5234375 C-448.11259989 65.95140548 -415.38826539 52.23860942 -382.73144531 40.94775391 C-379.65636414 39.8807656 -376.59008158 38.79021042 -373.5234375 37.69921875 C-362.53962276 33.81487316 -351.57540374 30.15068048 -340.3125 27.16796875 C-336.53262735 26.16350898 -332.80023206 25.03546319 -329.06469727 23.87817383 C-308.88573929 17.6486046 -288.35546589 12.95868476 -267.6875 8.6875 C-266.4560878 8.43108734 -266.4560878 8.43108734 -265.19979858 8.16949463 C-255.73496845 6.20709874 -246.3261205 4.52088895 -236.72192383 3.40551758 C-234.091193 3.28959019 -234.091193 3.28959019 -233 2 C-230.69430819 1.65084262 -228.37943989 1.36207103 -226.0625 1.09765625 C-225.34956787 1.01503036 -224.63663574 0.93240448 -223.90209961 0.84727478 C-221.60184707 0.58160737 -219.30096282 0.32193645 -217 0.0625 C-215.51037048 -0.10832165 -214.02078655 -0.2795414 -212.53125 -0.45117188 C-210.28175812 -0.7101913 -208.03218101 -0.96828144 -205.78224182 -1.22338867 C-202.1080224 -1.64009853 -198.43543537 -2.06554388 -194.76538086 -2.51757812 C-130.25591142 -10.43418421 -64.32628637 -8.92397817 0 0 Z " fill="#FEFEFE" transform="translate(2155,1241)"/>
<path d="M0 0 C3.57138246 0.01067315 7.14225623 0.00007097 10.71362305 -0.01269531 C31.20674621 -0.02720178 51.30604266 1.29838105 71.46948242 5.01074219 C72.54462097 5.20382965 72.54462097 5.20382965 73.64147949 5.40081787 C85.34185643 7.50887464 96.79350269 10.17114047 108.18530273 13.59667969 C110.26112342 14.21714477 112.34221661 14.80853226 114.43041992 15.38574219 C129.05000044 19.44497496 142.90333622 24.61280733 156.64135742 31.04980469 C158.75511156 31.97531851 160.91548384 32.79503643 163.09057617 33.56542969 C168.23197565 35.47067958 172.93507784 38.10269249 177.71948242 40.76074219 C178.68007568 41.29119141 179.64066895 41.82164063 180.63037109 42.36816406 C183.56006934 43.991672 186.48394412 45.62528026 189.40698242 47.26074219 C190.26420898 47.73640625 191.12143555 48.21207031 192.00463867 48.70214844 C203.01327969 54.82581405 213.4155092 61.48957348 223.58081055 68.9296875 C225.19375542 70.10532593 226.82267143 71.25898444 228.45385742 72.40917969 C235.80279522 77.61290732 242.60496601 83.37335722 249.40698242 89.26074219 C250.1262793 89.87820313 250.84557617 90.49566406 251.58666992 91.13183594 C253.54286404 92.82422795 255.4785172 94.53681116 257.40698242 96.26074219 C258.27323242 97.03417969 259.13948242 97.80761719 260.03198242 98.60449219 C271.17069425 108.67673161 282.14787444 118.98977471 291.44995117 130.81152344 C293.26678732 133.08528844 295.17111186 135.19757949 297.15698242 137.32324219 C303.55432536 144.44697665 308.92427974 152.42855372 314.40698242 160.26074219 C314.8586377 160.90317871 315.31029297 161.54561523 315.77563477 162.20751953 C323.40071032 173.12103737 329.950192 184.62769141 336.40698242 196.26074219 C336.99068604 197.31213379 336.99068604 197.31213379 337.58618164 198.38476562 C340.46960337 203.60263725 343.20049574 208.72289325 345.40698242 214.26074219 C346.33001831 216.10140025 347.26862822 217.93429929 348.21948242 219.76074219 C351.41821241 226.11173151 353.94471345 232.59680322 356.40698242 239.26074219 C356.88006836 240.47375 357.3531543 241.68675781 357.84057617 242.93652344 C364.06119473 258.91932265 368.61364052 275.13342829 371.93041992 291.94921875 C372.40251551 294.23907584 372.92499034 296.51053069 373.46948242 298.78417969 C375.83961244 308.71558674 377.23770373 318.47101785 378.12011719 328.63818359 C378.32448358 330.50652724 378.58950397 332.36865435 378.89501953 334.22314453 C380.79200324 346.06892322 380.7441713 357.86303045 380.72265625 369.83496094 C380.71952487 373.46157745 380.742921 377.08735263 380.76831055 380.71386719 C380.82853997 402.47701025 378.90962071 423.93124301 374.53198242 445.26074219 C374.26873761 446.57435294 374.00563857 447.88799292 373.74267578 449.20166016 C370.20591037 466.66911564 365.30662107 483.45132524 359.40698242 500.26074219 C358.9492041 501.5728064 358.9492041 501.5728064 358.48217773 502.91137695 C345.55216341 539.28924957 326.54436944 573.36705994 302.66625977 603.64990234 C301.38180055 605.29295428 300.121225 606.95224066 298.86401367 608.61621094 C291.65384105 618.09016768 283.70138839 626.72946599 275.40698242 635.26074219 C274.69638672 635.99325195 273.98579102 636.72576172 273.25366211 637.48046875 C265.72688953 645.2078661 258.22835373 652.77524601 249.72729492 659.43652344 C247.64016684 661.0774137 245.68076089 662.78601657 243.71948242 664.57324219 C228.44010967 678.04403612 210.99040216 688.99443848 193.38256836 699.11425781 C191.6205086 700.13682734 189.87570924 701.18900803 188.13354492 702.24511719 C156.15529566 721.35310811 119.52543517 733.66260805 83.21948242 741.38574219 C82.01582031 741.64437546 82.01582031 741.64437546 80.7878418 741.90823364 C68.07104473 744.63148043 55.36551682 747.02081465 42.40698242 748.26074219 C41.52582764 748.35355469 40.64467285 748.44636719 39.73681641 748.54199219 C29.68005239 749.47483157 19.62154884 749.41224446 9.52978516 749.39111328 C6.45169243 749.38571096 3.37374285 749.39110882 0.2956543 749.39746094 C-1.67635123 749.39680081 -3.64835667 749.39552099 -5.62036133 749.39355469 C-6.9892173 749.39659103 -6.9892173 749.39659103 -8.38572693 749.39968872 C-12.91236565 749.38306863 -17.13268818 749.126895 -21.59301758 748.26074219 C-24.00868402 748.13550602 -26.42562335 748.03387862 -28.84301758 747.94824219 C-45.1362149 747.16484466 -61.85334734 744.53293839 -77.59301758 740.26074219 C-78.88030762 739.91487061 -78.88030762 739.91487061 -80.19360352 739.56201172 C-91.70666394 736.4544369 -103.15918352 733.16635992 -114.53051758 729.57324219 C-115.83267212 729.16380371 -115.83267212 729.16380371 -117.16113281 728.74609375 C-123.08656866 726.84380454 -128.84454684 724.64161183 -134.59301758 722.26074219 C-135.44694092 721.91052002 -136.30086426 721.56029785 -137.18066406 721.19946289 C-151.86372654 715.12497389 -165.78967434 708.11852773 -179.59301758 700.26074219 C-180.76455092 699.60518334 -181.93637639 698.95014593 -183.10864258 698.29589844 C-202.91051142 687.0448366 -221.63156087 673.42835789 -238.59301758 658.26074219 C-239.89432617 657.10832031 -239.89432617 657.10832031 -241.22192383 655.93261719 C-243.69489439 653.72560012 -246.14564961 651.49610412 -248.59301758 649.26074219 C-249.67890208 648.28021474 -250.76484296 647.29974973 -251.85083008 646.31933594 C-257.08940822 641.56644882 -262.20688768 636.85870014 -266.74536133 631.41699219 C-268.65616596 629.18704683 -270.66365639 627.06583102 -272.68823242 624.93945312 C-279.68903174 617.54314105 -285.89418094 609.66697933 -291.94750977 601.484375 C-293.03954035 600.00867551 -294.13651275 598.53661954 -295.23852539 597.06835938 C-303.85154596 585.58944961 -311.45303342 573.70506751 -318.59301758 561.26074219 C-319.04837891 560.47103027 -319.50374023 559.68131836 -319.97290039 558.86767578 C-330.77591536 540.05444848 -338.90144319 520.52371494 -346.59301758 500.26074219 C-346.94428711 499.33535645 -347.29555664 498.4099707 -347.6574707 497.45654297 C-372.00909424 432.53971492 -374.47152224 361.73016893 -360.59301758 294.26074219 C-360.24721027 292.50828688 -359.9020439 290.75570482 -359.55786133 289.00292969 C-356.61757129 274.49289646 -352.11468008 260.27571706 -346.52612305 246.57421875 C-345.7123987 244.55672742 -344.94373656 242.53359786 -344.20629883 240.48730469 C-324.05771179 184.70052615 -287.84688921 131.81888792 -242.59301758 93.26074219 C-241.57654081 92.36978594 -240.5609934 91.4777688 -239.54614258 90.58496094 C-211.61811432 66.13985518 -179.52123803 45.53591261 -145.34594727 31.02050781 C-143.02435104 30.01426722 -140.74963141 28.91666735 -138.46801758 27.82324219 C-121.15431537 19.97676496 -102.97327108 14.90292327 -84.59301758 10.26074219 C-82.74534694 9.78032877 -80.89768994 9.29986288 -79.05004883 8.81933594 C-67.69477492 5.92836622 -56.33766399 3.95241963 -44.69628906 2.62548828 C-42.41655339 2.35753729 -40.14034127 2.05915872 -37.86669922 1.74365234 C-25.25267807 0.06526997 -12.71135533 -0.0450358 0 0 Z " fill="#B60600" transform="translate(2041.593017578125,1673.7392578125)"/>
</svg>
