<?xml version="1.0" encoding="UTF-8"?>
<svg version="1.1" xmlns="http://www.w3.org/2000/svg" width="4096" height="4096">
<path d="M0 0 C8.98634189 0.12301906 17.75355857 1.71753249 26.53515625 3.484375 C28.50583136 3.87090163 30.47650699 4.25742565 32.44720173 4.64385223 C34.54081991 5.05581924 36.63369079 5.47139969 38.72637939 5.88806152 C43.14855295 6.76829095 47.57282504 7.63762552 51.99755859 8.50488281 C53.52380618 8.80412558 55.05005128 9.10338104 56.57629395 9.40264893 C57.33921249 9.55223305 58.10213104 9.70181717 58.88816833 9.85593414 C61.22958616 10.31539292 63.57081308 10.77581289 65.9119873 11.23651123 C81.58858594 14.32038362 97.27727474 17.34003621 112.97044373 20.3383255 C115.13671174 20.75223778 117.30291678 21.16647845 119.46911621 21.58074951 C137.84434241 25.09365779 156.23055977 28.53982274 174.63644409 31.88882446 C195.17448867 35.62809576 215.68050152 39.53239432 236.1875 43.4375 C259.30388658 47.83888059 282.42217378 52.2258608 305.5625 56.5 C307.2146199 56.80519058 307.2146199 56.80519058 308.90011597 57.11654663 C318.25509784 58.84357879 327.6112817 60.56401164 336.96913147 62.2754364 C340.56292042 62.93271866 344.15649491 63.59116778 347.75 64.25 C348.45708099 64.37950043 349.16416199 64.50900085 349.89266968 64.64242554 C361.5440106 66.77912491 373.1831899 68.97882568 384.8203125 71.19140625 C386.36518654 71.48505215 387.91006266 71.77868709 389.4549408 72.0723114 C390.23206201 72.22001512 391.00918322 72.36771883 391.80985355 72.51989841 C395.83154135 73.28424471 399.85325299 74.04846532 403.875 74.8125 C404.67609318 74.96469875 405.47718636 75.11689751 406.30255508 75.27370834 C431.71543315 80.10051154 457.14853012 84.77990697 482.62312317 89.27125549 C483.64339096 89.45115524 484.66365875 89.63105499 485.71484375 89.81640625 C486.71847458 89.99328476 487.72210541 90.17016327 488.75614929 90.35240173 C497.59284756 91.91558501 506.41614437 93.54820536 515.23858643 95.18968201 C525.21397059 97.04466977 535.19857349 98.84461165 545.1875 100.625 C555.61262485 102.4840441 566.03147573 104.36802316 576.43774414 106.33007812 C581.16333879 107.21877881 585.89338309 108.08154756 590.625 108.9375 C592.51302307 109.27993556 594.40104384 109.62238384 596.2890625 109.96484375 C597.23426758 110.13612793 598.17947266 110.30741211 599.15332031 110.48388672 C602.8567674 111.15533502 606.55987492 111.8286428 610.26293945 112.50219727 C612.09217248 112.83488892 613.92143697 113.1674076 615.75073242 113.49975586 C620.32260417 114.33045243 624.89409236 115.16315941 629.46484375 116 C631.28903619 116.33347729 633.11325497 116.6668105 634.9375 117 C635.84024658 117.165 636.74299316 117.33 637.6730957 117.5 C642.38750243 118.35754552 647.10455147 119.19438053 651.828125 120 C660.48604587 121.47666773 669.11122878 122.97649541 677.6875 124.875 C686.55154908 126.81701509 695.48515011 128.28700555 704.4375 129.75 C720.23820263 132.33288589 735.99045732 135.14131165 751.73803711 138.02929688 C753.58836861 138.36854577 755.43871033 138.70773889 757.2890625 139.046875 C758.19433182 139.2128418 759.09960114 139.37880859 760.03230286 139.54980469 C769.55831656 141.29216582 779.09741238 142.95797463 788.63717651 144.62301636 C797.26805326 146.13204253 805.86553214 147.74610756 814.44335938 149.53222656 C823.32372103 151.33897243 832.28359607 152.69855054 841.23901367 154.07446289 C848.40094286 155.19162446 855.49685598 156.47150098 862.59765625 157.921875 C872.37328893 159.91610149 882.1848976 161.62206039 892.02514648 163.26379395 C897.13131678 164.11624915 902.23561599 164.97975042 907.33984375 165.84375 C908.38514252 166.0206134 909.43044128 166.19747681 910.50741577 166.37969971 C924.51429566 168.75674403 938.49767357 171.2657305 952.48278809 173.76696777 C953.81968689 174.00606873 953.81968689 174.00606873 955.18359375 174.25 C956.05101196 174.40521118 956.91843018 174.56042236 957.81213379 174.72033691 C963.52869494 175.74171351 969.24833735 176.74305883 974.97290039 177.71875 C975.99246826 177.8940625 977.01203613 178.069375 978.0625 178.25 C978.80338867 178.3769072 979.54427734 178.50381439 980.30761719 178.63456726 C985.19338073 179.48136276 990.05654103 180.39920498 994.91273499 181.40122986 C1005.34747417 183.55322549 1015.81740605 185.34586906 1026.34008789 187.0071106 C1040.32543869 189.21807152 1054.27741722 191.53010966 1068.18920898 194.16699219 C1077.35537583 195.89911531 1086.54376902 197.48529476 1095.74017334 199.04660034 C1106.17646889 200.81947699 1116.60602614 202.62789742 1127.03125 204.46484375 C1128.88863297 204.79191566 1128.88863297 204.79191566 1130.78353882 205.12559509 C1135.77338304 206.00459717 1140.76317006 206.88389728 1145.7522583 207.7671814 C1159.04519333 210.12052356 1172.33782851 212.44074247 1185.68411255 214.47439575 C1193.07140258 215.6221764 1200.40220418 217.01737705 1207.74215603 218.43048763 C1217.15100586 220.23510319 1226.58520745 221.87634865 1236.02734375 223.49609375 C1237.87604618 223.814564 1239.72472416 224.13317618 1241.57337952 224.45191956 C1245.41762112 225.11434946 1249.2620676 225.77557169 1253.10668945 226.43579102 C1257.9371652 227.26533404 1262.76723831 228.09719295 1267.59717655 228.92985916 C1286.19408641 232.13544634 1304.79435636 235.31606333 1323.41168213 238.40101624 C1332.01591952 239.82875559 1340.60421697 241.32662054 1349.1875 242.875 C1363.88697361 245.50452138 1378.61704073 247.92891279 1393.36206055 250.28857422 C1404.21983355 252.03098616 1415.06146879 253.85955138 1425.8984375 255.7265625 C1445.84060073 259.16123418 1465.80078425 262.48580946 1485.76229858 265.80587769 C1492.33638167 266.89945744 1498.9100237 267.99567493 1505.48364258 269.09204102 C1526.32634848 272.56725104 1547.1705697 276.03268481 1568.02055359 279.46398926 C1575.86396225 280.75484511 1583.70660932 282.05029993 1591.54907703 283.34685898 C1597.9323543 284.40170846 1604.3166534 285.45007818 1610.70175743 286.4938097 C1614.64364824 287.13970657 1618.58452831 287.79160709 1622.52514648 288.44521904 C1624.35256924 288.74703036 1626.18041499 289.04629298 1628.00869751 289.34285164 C1630.49548303 289.74654144 1632.98063372 290.15911377 1635.46557617 290.57397461 C1636.19245227 290.68972776 1636.91932837 290.80548092 1637.66823101 290.92474174 C1641.07068763 291.50237983 1643.07783118 292.05188746 1646 294 C1646.29833583 297.0667608 1646.39761947 299.93188979 1646.37138281 303.00161735 C1646.37693681 304.42837578 1646.37693681 304.42837578 1646.382603 305.88395762 C1646.39144479 309.11652725 1646.37864142 312.3486654 1646.36618346 315.58121836 C1646.36807546 317.91749841 1646.37128411 320.2537777 1646.3756981 322.59005435 C1646.38231094 327.7152209 1646.37946042 332.84029587 1646.36856748 337.96545142 C1646.35227612 345.66037163 1646.35329025 353.35522289 1646.35772522 361.0501556 C1646.36480659 374.22127663 1646.35753004 387.39235589 1646.34269472 400.56346889 C1646.32762849 413.99410571 1646.31914115 427.42472302 1646.31862888 440.85536854 C1646.31859245 441.70522061 1646.31855601 442.55507268 1646.31851847 443.43067785 C1646.318362 447.76950813 1646.31831096 452.10833841 1646.3182959 456.44716869 C1646.31795931 488.18692431 1646.30279036 519.92665977 1646.28024101 551.66640663 C1646.25742342 583.85221014 1646.24114154 616.03800717 1646.2329216 648.22381783 C1646.23252885 649.74450785 1646.23252885 649.74450785 1646.23212816 651.29591889 C1646.22973109 660.58621501 1646.22740712 669.87651114 1646.22517026 679.16680729 C1646.21955686 702.46659305 1646.21295096 725.76637848 1646.20568717 749.06616378 C1646.20535495 750.13402836 1646.20502274 751.20189295 1646.20468046 752.30211707 C1646.18820157 804.98751383 1646.16045478 857.67290402 1646.13199425 910.35829544 C1646.12197907 928.91248968 1646.11201735 947.46668394 1646.10225272 966.02087831 C1646.10164571 967.17422165 1646.10103869 968.32756498 1646.10041328 969.51585812 C1646.07237484 1022.91408313 1646.05202427 1076.31231022 1646.03365055 1129.71053933 C1646.03244891 1133.20163815 1646.03124366 1136.69273697 1646.03003747 1140.18383578 C1646.02276769 1161.23483182 1646.01557808 1182.28582788 1646.00848107 1203.33682398 C1645.99083337 1255.67263097 1645.9722237 1308.00843759 1645.95296192 1360.344244 C1645.95252387 1361.53577476 1645.95208581 1362.72730552 1645.95163448 1363.95494327 C1645.92324848 1441.14498543 1645.89090164 1518.33502533 1645.85524273 1595.52506447 C1645.85438862 1597.37405016 1645.85438862 1597.37405016 1645.85351725 1599.2603891 C1645.83617517 1636.78442849 1645.81854016 1674.30846775 1645.80084785 1711.83250697 C1645.78127031 1753.35771863 1645.76174273 1794.88293031 1645.74243164 1836.40814209 C1645.74185079 1837.65679974 1645.74126994 1838.90545738 1645.74067149 1840.19195314 C1645.68553265 1958.75976835 1645.63845737 2077.32758633 1645.59347061 2195.89540578 C1645.59156482 2200.91678416 1645.5896567 2205.93816254 1645.58774848 2210.95954092 C1645.57018896 2257.16693304 1645.55272414 2303.3743252 1645.53537826 2349.58171741 C1645.53468639 2351.4247426 1645.53468639 2351.4247426 1645.53398054 2353.30500063 C1645.53258404 2357.02512349 1645.53118757 2360.74524636 1645.5297911 2364.46536922 C1645.49206317 2464.96950989 1645.45350925 2565.47365024 1645.41442032 2665.97779039 C1645.41304132 2669.52397579 1645.41166295 2673.0701612 1645.41028477 2676.6163466 C1645.3655162 2791.80337945 1645.31925962 2906.99041156 1645.1394043 3315.62353516 C1645.13872977 3317.11954687 1645.13872977 3317.11954687 1645.13804163 3318.64578105 C1645.09916761 3404.86176191 1645.05996166 3491.07774261 1645 3621 C1643.56487876 3621.48750932 1642.12895662 3621.9726614 1640.69270134 3622.45681953 C1639.49338787 3622.86245272 1639.49338787 3622.86245272 1638.26984584 3623.27628052 C1635.57007677 3624.13707707 1632.90638658 3624.69256516 1630.10986328 3625.14404297 C1629.02838516 3625.32258316 1627.94690704 3625.50112335 1626.83265686 3625.68507385 C1625.67358322 3625.86892136 1624.51450958 3626.05276886 1623.3203125 3626.2421875 C1621.40215285 3626.55650814 1619.48399435 3626.87083588 1617.56587696 3627.18541431 C1615.51065717 3627.52116832 1613.45489857 3627.85342332 1611.3989563 3628.1847229 C1604.77745034 3629.25235809 1598.15985733 3630.34385726 1591.54207802 3631.43431282 C1589.98763405 3631.69038648 1588.43314826 3631.94620636 1586.87862206 3632.20178032 C1568.08694469 3635.29202506 1549.32390861 3638.54427833 1530.5625 3641.8125 C1529.01882135 3642.08129097 1527.47514055 3642.35006964 1525.93145752 3642.61883545 C1522.92931675 3643.14157039 1519.92718051 3643.66433139 1516.92504883 3644.18711853 C1516.19336487 3644.31452864 1515.46168091 3644.44193874 1514.70782471 3644.57320976 C1513.24356145 3644.82821725 1511.77930764 3645.08327897 1510.31506348 3645.33839607 C1489.26991629 3649.00475498 1468.21420857 3652.6099737 1447.1530304 3656.18304443 C1433.94656518 3658.42374742 1420.74355371 3660.68104744 1407.5546875 3663.0234375 C1406.57196869 3663.19796448 1405.58924988 3663.37249146 1404.57675171 3663.55230713 C1400.47314567 3664.28139373 1396.3695745 3665.01067634 1392.26605225 3665.74023438 C1378.08894963 3668.25734363 1363.901425 3670.70735552 1349.703125 3673.1015625 C1348.91518681 3673.23446245 1348.12724861 3673.3673624 1347.3154335 3673.50428963 C1339.45934939 3674.82888446 1331.60261901 3676.1495605 1323.74472713 3677.4633894 C1309.30162616 3679.87930729 1294.87402022 3682.3318179 1280.49902344 3685.13061523 C1273.61968995 3686.46966828 1266.71636786 3687.66993473 1259.8125 3688.875 C1258.34917671 3689.13152623 1256.88587993 3689.38820379 1255.42260742 3689.64501953 C1253.16417704 3690.0413643 1250.90572677 3690.43759165 1248.64717102 3690.83322144 C1243.73229064 3691.6944121 1238.818824 3692.56325608 1233.90625 3693.4375 C1221.45649805 3695.65065889 1209.00340647 3697.83840497 1196.53515625 3699.9453125 C1195.54304138 3700.11297119 1194.55092651 3700.28062988 1193.52874756 3700.45336914 C1191.49912687 3700.79627477 1189.46950446 3701.1391702 1187.43988037 3701.48205566 C1171.734702 3704.13612603 1156.05373078 3706.86516696 1140.40698242 3709.8449707 C1130.67904544 3711.69583055 1120.93912583 3713.46660125 1111.1875 3715.1875 C1110.46200958 3715.31560059 1109.73651917 3715.44370117 1108.98904419 3715.57568359 C1100.14215559 3717.1342946 1091.28764995 3718.61255286 1082.40625 3719.9621582 C1076.31160902 3720.90652448 1070.2887905 3722.12963172 1064.25048828 3723.37939453 C1056.53194683 3724.94969301 1048.77304193 3726.23104062 1041 3727.5 C1032.51059249 3728.88668235 1024.0485857 3730.31760204 1015.625 3732.0625 C1008.72998272 3733.48842179 1001.82360706 3734.73815548 994.875 3735.875 C984.82183736 3737.52013832 974.78252728 3739.2339109 964.75 3741 C963.64458862 3741.19450745 963.64458862 3741.19450745 962.5168457 3741.39294434 C953.34244218 3743.01121419 944.19295859 3744.71578196 935.06933594 3746.6015625 C927.83628849 3748.07832251 920.56268637 3749.28077891 913.27099609 3750.43017578 C906.99028324 3751.43841004 900.76327756 3752.63743424 894.53125 3753.90625 C883.37164565 3756.17247735 872.15954315 3758.06194719 860.92724609 3759.92724609 C850.55640622 3761.65407855 840.23222743 3763.5131372 829.92956543 3765.61071777 C823.64055546 3766.88721708 817.33923858 3768.00085929 811 3769 C803.7387511 3770.17698143 796.51643604 3771.44941535 789.3125 3772.9375 C781.21456049 3774.60688079 773.0884376 3776.05092839 764.9375 3777.4375 C750.93163803 3779.82194194 736.96278979 3782.37618483 723 3785 C720.51041842 3785.46745726 718.02083504 3785.93490491 715.53125 3786.40234375 C714.2517749 3786.64259277 712.9722998 3786.8828418 711.65405273 3787.13037109 C710.33187088 3787.37859344 709.0096866 3787.62680293 707.6875 3787.875 C707.02259552 3787.9998175 706.35769104 3788.12463501 705.67263794 3788.25323486 C683.86458529 3792.3457797 662.04580097 3796.37913351 640.20703125 3800.3046875 C639.10784363 3800.50227158 638.00865601 3800.69985565 636.87615967 3800.90342712 C631.48243997 3801.87242839 626.08838449 3802.83951348 620.69384766 3803.80395508 C608.50847565 3805.98590723 596.34143911 3808.24886754 584.18423462 3810.58242798 C579.41855149 3811.49350956 574.64678581 3812.37157327 569.875 3813.25 C567.53774199 3813.68219205 565.20050379 3814.11449118 562.86328125 3814.546875 C558.80532895 3815.29705847 554.74727878 3816.04669747 550.68896484 3816.79492188 C520.93026227 3822.28355866 491.20722032 3827.95472158 461.48745346 3833.64958763 C459.43428299 3834.0430005 457.38109949 3834.43634535 455.32791138 3834.82966614 C454.34021318 3835.01888028 454.34021318 3835.01888028 453.33256149 3835.21191692 C451.41509889 3835.57924266 449.4976343 3835.94655809 447.58016968 3836.31387329 C445.29318095 3836.7521665 443.00624893 3837.19075576 440.71939087 3837.62973022 C431.30443127 3839.43688509 421.89449471 3841.23698218 412.4375 3842.8125 C402.80338421 3844.45553398 393.2136404 3846.30126602 383.625 3848.1875 C369.04181967 3851.05618661 354.43437145 3853.77343519 339.8125 3856.4375 C323.61971429 3859.3890087 307.45027658 3862.43504144 291.30184937 3865.62020874 C278.75971028 3868.0932223 266.20143196 3870.45793045 253.625 3872.75 C240.00085979 3875.21984439 240.00085979 3875.21984439 226.4375 3878 C218.07074319 3879.82062484 209.66430747 3881.41707929 201.25 3883 C199.64998351 3883.30134979 198.04996724 3883.60270074 196.44995117 3883.90405273 C193.83489683 3884.3963676 191.21981387 3884.88852956 188.60469055 3885.38047791 C178.0635104 3887.36354862 167.52356882 3889.35305381 156.98565674 3891.35342407 C154.48635471 3891.8278239 151.98696436 3892.30175864 149.48748779 3892.77523804 C130.25689125 3896.42125434 111.04560145 3900.16137751 91.84114075 3903.94262886 C87.9788865 3904.70266767 84.1163853 3905.46143745 80.25378418 3906.2197113 C78.33219986 3906.59694761 78.33219986 3906.59694761 76.37179565 3906.98180485 C73.77400907 3907.49174074 71.17621038 3908.00161494 68.57839966 3908.51142788 C60.79248428 3910.04024633 53.00837411 3911.57790086 45.22537422 3913.12148857 C40.31503318 3914.09331778 35.40317075 3915.05727911 30.49088669 3916.0192337 C28.17242567 3916.47501218 25.85462519 3916.93416462 23.53752518 3917.39681244 C20.34030357 3918.03476415 17.14099517 3918.66097978 13.94091797 3919.28442383 C13.00110203 3919.4749083 12.06128609 3919.66539278 11.09299088 3919.86164951 C9.79325144 3920.11120348 9.79325144 3920.11120348 8.46725464 3920.36579895 C7.72038832 3920.51337049 6.973522 3920.66094202 6.20402336 3920.81298542 C4 3921 4 3921 -1 3920 C-1 2765 -1 1610 -1 420 C-106.93 420 -212.86 420 -322 420 C-350.05 419.67 -378.1 419.34 -407 419 C-407 1473.02 -407 2527.04 -407 3613 C-500.40750778 3614.16759385 -500.40750778 3614.16759385 -530.53607178 3614.12695312 C-533.87045739 3614.12437539 -537.20481683 3614.12908872 -540.53919894 3614.13371956 C-566.14241655 3614.16194487 -591.73940984 3613.8631968 -617.33989024 3613.52731848 C-621.93992016 3613.46717513 -626.53996422 3613.40813247 -631.14000702 3613.34898376 C-640.09335178 3613.23370351 -649.04668082 3613.1172491 -658 3613 C-658.19246565 3526.66889526 -658.37294134 3440.33776572 -659.12912563 2807.93196883 C-659.12939496 2805.81300437 -659.12966966 2803.69403991 -659.12994602 2801.57507545 C-659.13933959 2729.42608529 -659.13970058 2657.27709604 -659.1355505 2582.87787385 C-659.1351297 2575.33854895 -659.13472034 2567.79922404 -659.1343255 2560.25989914 C-659.13426657 2559.13462038 -659.13426657 2559.13462038 -659.13420645 2557.98660872 C-659.13234336 2522.05306773 -659.13285387 2486.11952687 -659.13375596 2450.18598586 C-659.13385575 2446.18009385 -659.13395127 2442.17420183 -659.13404724 2438.16830982 C-659.13433822 2426.073304 -659.13463521 2413.97829819 -659.13494483 2401.88329238 C-659.13588609 2365.07175649 -659.13648868 2328.2602206 -659.13679314 2291.44868469 C-659.13680001 2290.63143212 -659.13680687 2289.81417955 -659.13681395 2288.97216175 C-659.13724794 2236.61723923 -659.13617638 2184.26231688 -659.13394356 2131.90739441 C-659.13390844 2131.08080701 -659.13387332 2130.25421961 -659.13383714 2129.40258411 C-659.13266323 2101.77657846 -659.13140599 2074.15057281 -659.13014051 2046.52456716 C-659.1263257 1963.18848146 -659.12422765 1879.85239633 -659.13025584 1730.9577084 C-659.1315205 1703.33600746 -659.13277003 1675.71430653 -659.13394356 1648.09260559 C-659.1339788 1647.26619159 -659.13401405 1646.43977759 -659.13405036 1645.58832075 C-659.13628059 1593.24265225 -659.13723307 1540.89698385 -659.13679314 1488.55131531 C-659.13678638 1487.73444222 -659.13677962 1486.91756913 -659.13677266 1486.07594231 C-659.13646496 1449.27959616 -659.13582459 1412.48325002 -659.13488263 1375.68690388 C-659.13457355 1363.59966994 -659.13427915 1351.51243599 -659.13398959 1339.42520204 C-659.13389359 1335.42169647 -659.13379623 1331.41819089 -659.13369573 1327.41468531 C-659.13279725 1291.5231571 -659.13244577 1255.63162905 -659.1343255 1219.74010086 C-659.13436476 1218.99053675 -659.13440401 1218.24097264 -659.13444446 1217.46869447 C-659.13484128 1209.93642782 -659.13525554 1202.40416116 -659.13567615 1194.87189451 C-659.13970058 1122.72290396 -659.13933959 1050.57391471 -659.12966925 976.30283328 C-659.12939497 974.18698573 -659.12912602 972.07113817 -659.12885859 969.95529062 C-659.12010615 900.92186388 -659.10260693 831.88843526 -658.77240307 552.52379753 C-658.76855695 550.26039223 -658.76472352 547.99698691 -658.760895 545.73358158 C-658.7596416 544.99297909 -658.7583882 544.25237659 -658.75709682 543.4893316 C-658.75372384 541.49596843 -658.75035253 539.50260525 -658.74698137 537.50924208 C-658.53624278 414.00608667 -658.25954468 290.50305973 -658 167 C-441.19 167 -224.38 167 -1 167 C-1 112.22 -1 57.44 -1 1 C-0.67 0.67 -0.34 0.34 0 0 Z M244 1850 C219.88961981 1876.55794908 206.09540618 1910.994475 205 1947 C204.96003906 1948.26328125 204.92007813 1949.5265625 204.87890625 1950.828125 C204.05379366 1990.81326849 215.73888922 2028.52362265 242 2059 C250.76617473 2067.69219858 261.08410366 2074.3649005 272 2080 C272.61746094 2080.36867188 273.23492188 2080.73734375 273.87109375 2081.1171875 C284.6376196 2087.30374356 297.29770872 2088.35626575 309.4375 2088.375 C310.43136719 2088.37661133 311.42523437 2088.37822266 312.44921875 2088.37988281 C338.12461537 2087.9937221 359.40419768 2075.19795022 377.296875 2057.76171875 C406.08964935 2027.18379239 413.94467654 1985.11446909 413.13623047 1944.64697266 C411.78898632 1908.58042586 396.88339818 1873.88026775 372 1848 C371.16275391 1847.05060547 371.16275391 1847.05060547 370.30859375 1846.08203125 C366.41026246 1841.79692035 361.7998006 1838.59857956 357.0625 1835.3125 C356.39387939 1834.84835693 355.72525879 1834.38421387 355.03637695 1833.90600586 C348.17814045 1829.26161513 341.23750311 1825.89263818 333.375 1823.3125 C332.12460938 1822.89613281 330.87421875 1822.47976563 329.5859375 1822.05078125 C298.80632258 1813.03148233 265.40506973 1827.90655896 244 1850 Z " fill="#FFFFFF" transform="translate(1583,79)"/>
</svg>
